  0
SECTION
  2
HEADER
  9
$ANGBASE
  50
0.0
  9
$ANGDIR
  70
  1
  9
$MEASUREMENT
  70
0
  0
ENDSEC
  0
SECTION
  2
TABLES
  0
TABLE
  2
LTYPE
  70
1
  0
LTYPE
  2
CONTINUOUS
  70
0
  3
Solid line
  72
65
  73
0
  40
0.0
  0
ENDTAB
  0
TABLE
  2
STYLE
  70
4
  0
STYLE
  2
KICAD
  70
0
  40
0
  41
1
  42
1
  50
0
  71
0
  3
isocp.shx
  0
STYLE
  2
KICADB
  70
0
  40
0
  41
1
  42
1
  50
0
  71
0
  3
isocp.shx
  0
STYLE
  2
KICADI
  70
0
  40
0
  41
1
  42
1
  50
15
  71
0
  3
isocp.shx
  0
STYLE
  2
KICADBI
  70
0
  40
0
  41
1
  42
1
  50
15
  71
0
  3
isocp.shx
  0
ENDTAB
  0
TABLE
  2
LAYER
  70
30
  0
LAYER
  2
BLACK
  70
0
  62
7
  6
CONTINUOUS
  0
LAYER
  2
GRAY1
  70
0
  62
251
  6
CONTINUOUS
  0
LAYER
  2
GRAY2
  70
0
  62
8
  6
CONTINUOUS
  0
LAYER
  2
GRAY3
  70
0
  62
9
  6
CONTINUOUS
  0
LAYER
  2
WHITE
  70
0
  62
7
  6
CONTINUOUS
  0
LAYER
  2
LYELLOW
  70
0
  62
51
  6
CONTINUOUS
  0
LAYER
  2
BLUE1
  70
0
  62
178
  6
CONTINUOUS
  0
LAYER
  2
GREEN1
  70
0
  62
98
  6
CONTINUOUS
  0
LAYER
  2
CYAN1
  70
0
  62
138
  6
CONTINUOUS
  0
LAYER
  2
RED1
  70
0
  62
18
  6
CONTINUOUS
  0
LAYER
  2
MAGENTA1
  70
0
  62
228
  6
CONTINUOUS
  0
LAYER
  2
BROWN1
  70
0
  62
58
  6
CONTINUOUS
  0
LAYER
  2
BLUE2
  70
0
  62
5
  6
CONTINUOUS
  0
LAYER
  2
GREEN2
  70
0
  62
3
  6
CONTINUOUS
  0
LAYER
  2
CYAN2
  70
0
  62
4
  6
CONTINUOUS
  0
LAYER
  2
RED2
  70
0
  62
1
  6
CONTINUOUS
  0
LAYER
  2
MAGENTA2
  70
0
  62
6
  6
CONTINUOUS
  0
LAYER
  2
BROWN2
  70
0
  62
54
  6
CONTINUOUS
  0
LAYER
  2
BLUE3
  70
0
  62
171
  6
CONTINUOUS
  0
LAYER
  2
GREEN3
  70
0
  62
91
  6
CONTINUOUS
  0
LAYER
  2
CYAN3
  70
0
  62
131
  6
CONTINUOUS
  0
LAYER
  2
RED3
  70
0
  62
11
  6
CONTINUOUS
  0
LAYER
  2
MAGENTA3
  70
0
  62
221
  6
CONTINUOUS
  0
LAYER
  2
YELLOW3
  70
0
  62
2
  6
CONTINUOUS
  0
LAYER
  2
BLUE4
  70
0
  62
5
  6
CONTINUOUS
  0
LAYER
  2
GREEN4
  70
0
  62
3
  6
CONTINUOUS
  0
LAYER
  2
CYAN4
  70
0
  62
4
  6
CONTINUOUS
  0
LAYER
  2
RED4
  70
0
  62
1
  6
CONTINUOUS
  0
LAYER
  2
MAGENTA4
  70
0
  62
6
  6
CONTINUOUS
  0
LAYER
  2
YELLOW4
  70
0
  62
2
  6
CONTINUOUS
  0
ENDTAB
  0
ENDSEC
  0
SECTION
  2
ENTITIES
0
LINE
8
Black
10
74.6061
20
-92.7135
11
74.6061
21
-92.707
0
LINE
8
Black
10
74.6061
20
-92.707
11
74.6084
21
-92.7008
0
LINE
8
Black
10
74.6084
20
-92.7008
11
74.6095
21
-92.6943
0
LINE
8
Black
10
74.6095
20
-92.6943
11
74.6128
21
-92.6887
0
LINE
8
Black
10
74.6128
20
-92.6887
11
74.615
21
-92.6825
0
LINE
8
Black
10
74.615
20
-92.6825
11
74.6193
21
-92.6775
0
LINE
8
Black
10
74.6193
20
-92.6775
11
74.6225
21
-92.6718
0
LINE
8
Black
10
74.6225
20
-92.6718
11
74.6276
21
-92.6676
0
LINE
8
Black
10
74.6276
20
-92.6676
11
74.6318
21
-92.6625
0
LINE
8
Black
10
74.6318
20
-92.6625
11
74.6375
21
-92.6593
0
LINE
8
Black
10
74.6375
20
-92.6593
11
74.6425
21
-92.655
0
LINE
8
Black
10
74.6425
20
-92.655
11
74.6487
21
-92.6528
0
LINE
8
Black
10
74.6487
20
-92.6528
11
74.6543
21
-92.6495
0
LINE
8
Black
10
74.6543
20
-92.6495
11
74.6608
21
-92.6484
0
LINE
8
Black
10
74.6608
20
-92.6484
11
74.667
21
-92.6461
0
LINE
8
Black
10
74.667
20
-92.6461
11
74.6735
21
-92.6461
0
LINE
8
Black
10
74.6735
20
-92.6461
11
74.68
21
-92.645
0
LINE
8
Black
10
74.68
20
-92.645
11
182.605
21
-92.645
0
LINE
8
Black
10
182.605
20
-92.645
11
182.605
21
-82.72
0
LINE
8
Black
10
182.605
20
-82.72
11
182.606
21
-82.7135
0
LINE
8
Black
10
182.606
20
-82.7135
11
182.606
21
-82.707
0
LINE
8
Black
10
182.606
20
-82.707
11
182.608
21
-82.7008
0
LINE
8
Black
10
182.608
20
-82.7008
11
182.61
21
-82.6943
0
LINE
8
Black
10
182.61
20
-82.6943
11
182.613
21
-82.6887
0
LINE
8
Black
10
182.613
20
-82.6887
11
182.615
21
-82.6825
0
LINE
8
Black
10
182.615
20
-82.6825
11
182.619
21
-82.6775
0
LINE
8
Black
10
182.619
20
-82.6775
11
182.623
21
-82.6718
0
LINE
8
Black
10
182.623
20
-82.6718
11
182.628
21
-82.6676
0
LINE
8
Black
10
182.628
20
-82.6676
11
182.632
21
-82.6625
0
LINE
8
Black
10
182.632
20
-82.6625
11
182.637
21
-82.6593
0
LINE
8
Black
10
182.637
20
-82.6593
11
182.642
21
-82.655
0
LINE
8
Black
10
182.642
20
-82.655
11
182.649
21
-82.6528
0
LINE
8
Black
10
182.649
20
-82.6528
11
182.654
21
-82.6495
0
LINE
8
Black
10
182.654
20
-82.6495
11
182.661
21
-82.6484
0
LINE
8
Black
10
182.661
20
-82.6484
11
182.667
21
-82.6461
0
LINE
8
Black
10
182.667
20
-82.6461
11
182.674
21
-82.6461
0
LINE
8
Black
10
182.674
20
-82.6461
11
182.68
21
-82.645
0
LINE
8
Black
10
182.68
20
-82.645
11
226.68
21
-82.645
0
LINE
8
Black
10
226.68
20
-82.645
11
226.686
21
-82.6461
0
LINE
8
Black
10
226.686
20
-82.6461
11
226.693
21
-82.6461
0
LINE
8
Black
10
226.693
20
-82.6461
11
226.699
21
-82.6484
0
LINE
8
Black
10
226.699
20
-82.6484
11
226.706
21
-82.6495
0
LINE
8
Black
10
226.706
20
-82.6495
11
226.711
21
-82.6528
0
LINE
8
Black
10
226.711
20
-82.6528
11
226.718
21
-82.655
0
LINE
8
Black
10
226.718
20
-82.655
11
226.723
21
-82.6593
0
LINE
8
Black
10
226.723
20
-82.6593
11
226.728
21
-82.6625
0
LINE
8
Black
10
226.728
20
-82.6625
11
226.732
21
-82.6676
0
LINE
8
Black
10
226.732
20
-82.6676
11
226.737
21
-82.6718
0
LINE
8
Black
10
226.737
20
-82.6718
11
226.741
21
-82.6775
0
LINE
8
Black
10
226.741
20
-82.6775
11
226.745
21
-82.6825
0
LINE
8
Black
10
226.745
20
-82.6825
11
226.747
21
-82.6887
0
LINE
8
Black
10
226.747
20
-82.6887
11
226.75
21
-82.6943
0
LINE
8
Black
10
226.75
20
-82.6943
11
226.752
21
-82.7008
0
LINE
8
Black
10
226.752
20
-82.7008
11
226.754
21
-82.707
0
LINE
8
Black
10
226.754
20
-82.707
11
226.754
21
-82.7135
0
LINE
8
Black
10
226.754
20
-82.7135
11
226.755
21
-82.72
0
LINE
8
Black
10
226.755
20
-82.72
11
226.755
21
-129.67
0
LINE
8
Black
10
226.755
20
-129.67
11
226.754
21
-129.676
0
LINE
8
Black
10
226.754
20
-129.676
11
226.754
21
-129.683
0
LINE
8
Black
10
226.754
20
-129.683
11
226.752
21
-129.689
0
LINE
8
Black
10
226.752
20
-129.689
11
226.75
21
-129.696
0
LINE
8
Black
10
226.75
20
-129.696
11
226.747
21
-129.701
0
LINE
8
Black
10
226.747
20
-129.701
11
226.745
21
-129.707
0
LINE
8
Black
10
226.745
20
-129.707
11
226.741
21
-129.713
0
LINE
8
Black
10
226.741
20
-129.713
11
226.737
21
-129.718
0
LINE
8
Black
10
226.737
20
-129.718
11
226.732
21
-129.722
0
LINE
8
Black
10
226.732
20
-129.722
11
226.728
21
-129.727
0
LINE
8
Black
10
226.728
20
-129.727
11
226.723
21
-129.731
0
LINE
8
Black
10
226.723
20
-129.731
11
226.718
21
-129.735
0
LINE
8
Black
10
226.718
20
-129.735
11
226.711
21
-129.737
0
LINE
8
Black
10
226.711
20
-129.737
11
226.706
21
-129.74
0
LINE
8
Black
10
226.706
20
-129.74
11
226.699
21
-129.742
0
LINE
8
Black
10
226.699
20
-129.742
11
226.693
21
-129.744
0
LINE
8
Black
10
226.693
20
-129.744
11
226.686
21
-129.744
0
LINE
8
Black
10
226.686
20
-129.744
11
226.68
21
-129.745
0
LINE
8
Black
10
226.68
20
-129.745
11
182.67
21
-129.745
0
LINE
8
Black
10
182.67
20
-129.745
11
182.644
21
-129.74
0
LINE
8
Black
10
182.644
20
-129.74
11
182.622
21
-129.727
0
LINE
8
Black
10
182.622
20
-129.727
11
182.605
21
-129.707
0
LINE
8
Black
10
182.605
20
-129.707
11
182.596
21
-129.683
0
LINE
8
Black
10
182.596
20
-129.683
11
182.596
21
-129.657
0
LINE
8
Black
10
182.596
20
-129.657
11
182.605
21
-129.633
0
LINE
8
Black
10
182.605
20
-129.633
11
182.605
21
-119.745
0
LINE
8
Black
10
182.605
20
-119.745
11
74.68
21
-119.745
0
LINE
8
Black
10
74.68
20
-119.745
11
74.6735
21
-119.744
0
LINE
8
Black
10
74.6735
20
-119.744
11
74.667
21
-119.744
0
LINE
8
Black
10
74.667
20
-119.744
11
74.6608
21
-119.742
0
LINE
8
Black
10
74.6608
20
-119.742
11
74.6543
21
-119.74
0
LINE
8
Black
10
74.6543
20
-119.74
11
74.6487
21
-119.737
0
LINE
8
Black
10
74.6487
20
-119.737
11
74.6425
21
-119.735
0
LINE
8
Black
10
74.6425
20
-119.735
11
74.6375
21
-119.731
0
LINE
8
Black
10
74.6375
20
-119.731
11
74.6318
21
-119.727
0
LINE
8
Black
10
74.6318
20
-119.727
11
74.6276
21
-119.722
0
LINE
8
Black
10
74.6276
20
-119.722
11
74.6225
21
-119.718
0
LINE
8
Black
10
74.6225
20
-119.718
11
74.6193
21
-119.713
0
LINE
8
Black
10
74.6193
20
-119.713
11
74.615
21
-119.707
0
LINE
8
Black
10
74.615
20
-119.707
11
74.6128
21
-119.701
0
LINE
8
Black
10
74.6128
20
-119.701
11
74.6095
21
-119.696
0
LINE
8
Black
10
74.6095
20
-119.696
11
74.6084
21
-119.689
0
LINE
8
Black
10
74.6084
20
-119.689
11
74.6061
21
-119.683
0
LINE
8
Black
10
74.6061
20
-119.683
11
74.6061
21
-119.676
0
LINE
8
Black
10
74.6061
20
-119.676
11
74.605
21
-119.67
0
LINE
8
Black
10
74.605
20
-119.67
11
74.605
21
-92.72
0
LINE
8
Black
10
74.605
20
-92.72
11
74.6061
21
-92.7135
0
LINE
8
Black
10
182.755
20
-82.795
11
182.755
21
-92.72
0
LINE
8
Black
10
182.755
20
-92.72
11
182.754
21
-92.7265
0
LINE
8
Black
10
182.754
20
-92.7265
11
182.754
21
-92.733
0
LINE
8
Black
10
182.754
20
-92.733
11
182.752
21
-92.7392
0
LINE
8
Black
10
182.752
20
-92.7392
11
182.75
21
-92.7457
0
LINE
8
Black
10
182.75
20
-92.7457
11
182.747
21
-92.7513
0
LINE
8
Black
10
182.747
20
-92.7513
11
182.745
21
-92.7575
0
LINE
8
Black
10
182.745
20
-92.7575
11
182.741
21
-92.7625
0
LINE
8
Black
10
182.741
20
-92.7625
11
182.737
21
-92.7682
0
LINE
8
Black
10
182.737
20
-92.7682
11
182.732
21
-92.7724
0
LINE
8
Black
10
182.732
20
-92.7724
11
182.728
21
-92.7775
0
LINE
8
Black
10
182.728
20
-92.7775
11
182.723
21
-92.7807
0
LINE
8
Black
10
182.723
20
-92.7807
11
182.718
21
-92.785
0
LINE
8
Black
10
182.718
20
-92.785
11
182.711
21
-92.7872
0
LINE
8
Black
10
182.711
20
-92.7872
11
182.706
21
-92.7905
0
LINE
8
Black
10
182.706
20
-92.7905
11
182.699
21
-92.7916
0
LINE
8
Black
10
182.699
20
-92.7916
11
182.693
21
-92.7939
0
LINE
8
Black
10
182.693
20
-92.7939
11
182.686
21
-92.7939
0
LINE
8
Black
10
182.686
20
-92.7939
11
182.68
21
-92.795
0
LINE
8
Black
10
182.68
20
-92.795
11
132.077
21
-92.795
0
LINE
8
Black
10
132.077
20
-92.795
11
132.053
21
-92.8039
0
LINE
8
Black
10
132.053
20
-92.8039
11
132.027
21
-92.8039
0
LINE
8
Black
10
132.027
20
-92.8039
11
132.003
21
-92.795
0
LINE
8
Black
10
132.003
20
-92.795
11
74.755
21
-92.795
0
LINE
8
Black
10
74.755
20
-92.795
11
74.755
21
-119.595
0
LINE
8
Black
10
74.755
20
-119.595
11
182.67
21
-119.595
0
LINE
8
Black
10
182.67
20
-119.595
11
182.676
21
-119.596
0
LINE
8
Black
10
182.676
20
-119.596
11
182.693
21
-119.596
0
LINE
8
Black
10
182.693
20
-119.596
11
182.718
21
-119.605
0
LINE
8
Black
10
182.718
20
-119.605
11
182.737
21
-119.622
0
LINE
8
Black
10
182.737
20
-119.622
11
182.75
21
-119.644
0
LINE
8
Black
10
182.75
20
-119.644
11
182.755
21
-119.67
0
LINE
8
Black
10
182.755
20
-119.67
11
182.755
21
-129.595
0
LINE
8
Black
10
182.755
20
-129.595
11
226.605
21
-129.595
0
LINE
8
Black
10
226.605
20
-129.595
11
226.605
21
-82.795
0
LINE
8
Black
10
226.605
20
-82.795
11
182.755
21
-82.795
  0
ENDSEC
  0
EOF
