  0
SECTION
  2
HEADER
  9
$ANGBASE
  50
0.0
  9
$ANGDIR
  70
  1
  9
$MEASUREMENT
  70
0
  0
ENDSEC
  0
SECTION
  2
TABLES
  0
TABLE
  2
LTYPE
  70
1
  0
LTYPE
  2
CONTINUOUS
  70
0
  3
Solid line
  72
65
  73
0
  40
0.0
  0
ENDTAB
  0
TABLE
  2
STYLE
  70
4
  0
STYLE
  2
KICAD
  70
0
  40
0
  41
1
  42
1
  50
0
  71
0
  3
isocp.shx
  0
STYLE
  2
KICADB
  70
0
  40
0
  41
1
  42
1
  50
0
  71
0
  3
isocp.shx
  0
STYLE
  2
KICADI
  70
0
  40
0
  41
1
  42
1
  50
15
  71
0
  3
isocp.shx
  0
STYLE
  2
KICADBI
  70
0
  40
0
  41
1
  42
1
  50
15
  71
0
  3
isocp.shx
  0
ENDTAB
  0
TABLE
  2
LAYER
  70
30
  0
LAYER
  2
BLACK
  70
0
  62
7
  6
CONTINUOUS
  0
LAYER
  2
GRAY1
  70
0
  62
251
  6
CONTINUOUS
  0
LAYER
  2
GRAY2
  70
0
  62
8
  6
CONTINUOUS
  0
LAYER
  2
GRAY3
  70
0
  62
9
  6
CONTINUOUS
  0
LAYER
  2
WHITE
  70
0
  62
7
  6
CONTINUOUS
  0
LAYER
  2
LYELLOW
  70
0
  62
51
  6
CONTINUOUS
  0
LAYER
  2
BLUE1
  70
0
  62
178
  6
CONTINUOUS
  0
LAYER
  2
GREEN1
  70
0
  62
98
  6
CONTINUOUS
  0
LAYER
  2
CYAN1
  70
0
  62
138
  6
CONTINUOUS
  0
LAYER
  2
RED1
  70
0
  62
18
  6
CONTINUOUS
  0
LAYER
  2
MAGENTA1
  70
0
  62
228
  6
CONTINUOUS
  0
LAYER
  2
BROWN1
  70
0
  62
58
  6
CONTINUOUS
  0
LAYER
  2
BLUE2
  70
0
  62
5
  6
CONTINUOUS
  0
LAYER
  2
GREEN2
  70
0
  62
3
  6
CONTINUOUS
  0
LAYER
  2
CYAN2
  70
0
  62
4
  6
CONTINUOUS
  0
LAYER
  2
RED2
  70
0
  62
1
  6
CONTINUOUS
  0
LAYER
  2
MAGENTA2
  70
0
  62
6
  6
CONTINUOUS
  0
LAYER
  2
BROWN2
  70
0
  62
54
  6
CONTINUOUS
  0
LAYER
  2
BLUE3
  70
0
  62
171
  6
CONTINUOUS
  0
LAYER
  2
GREEN3
  70
0
  62
91
  6
CONTINUOUS
  0
LAYER
  2
CYAN3
  70
0
  62
131
  6
CONTINUOUS
  0
LAYER
  2
RED3
  70
0
  62
11
  6
CONTINUOUS
  0
LAYER
  2
MAGENTA3
  70
0
  62
221
  6
CONTINUOUS
  0
LAYER
  2
YELLOW3
  70
0
  62
2
  6
CONTINUOUS
  0
LAYER
  2
BLUE4
  70
0
  62
5
  6
CONTINUOUS
  0
LAYER
  2
GREEN4
  70
0
  62
3
  6
CONTINUOUS
  0
LAYER
  2
CYAN4
  70
0
  62
4
  6
CONTINUOUS
  0
LAYER
  2
RED4
  70
0
  62
1
  6
CONTINUOUS
  0
LAYER
  2
MAGENTA4
  70
0
  62
6
  6
CONTINUOUS
  0
LAYER
  2
YELLOW4
  70
0
  62
2
  6
CONTINUOUS
  0
ENDTAB
  0
ENDSEC
  0
SECTION
  2
ENTITIES
0
LINE
8
Black
10
198.68
20
-119.16
11
197.78
21
-119.16
0
LINE
8
Black
10
197.78
20
-119.16
11
197.78
21
-117.96
0
LINE
8
Black
10
197.78
20
-117.96
11
198.68
21
-117.96
0
LINE
8
Black
10
198.68
20
-117.96
11
198.68
21
-119.16
0
LINE
8
Black
10
170.88
20
-118.3
11
169.68
21
-118.3
0
LINE
8
Black
10
169.68
20
-118.3
11
169.68
21
-117.4
0
LINE
8
Black
10
169.68
20
-117.4
11
170.88
21
-117.4
0
LINE
8
Black
10
170.88
20
-117.4
11
170.88
21
-118.3
0
LINE
8
Black
10
168.68
20
-118.3
11
167.48
21
-118.3
0
LINE
8
Black
10
167.48
20
-118.3
11
167.48
21
-117.4
0
LINE
8
Black
10
167.48
20
-117.4
11
168.68
21
-117.4
0
LINE
8
Black
10
168.68
20
-117.4
11
168.68
21
-118.3
0
LINE
8
Black
10
158.575
20
-117.95
11
157.975
21
-117.95
0
LINE
8
Black
10
157.975
20
-117.95
11
157.975
21
-116.45
0
LINE
8
Black
10
157.975
20
-116.45
11
158.575
21
-116.45
0
LINE
8
Black
10
158.575
20
-116.45
11
158.575
21
-117.95
0
LINE
8
Black
10
164.925
20
-117.95
11
164.325
21
-117.95
0
LINE
8
Black
10
164.325
20
-117.95
11
164.325
21
-116.45
0
LINE
8
Black
10
164.325
20
-116.45
11
164.925
21
-116.45
0
LINE
8
Black
10
164.925
20
-116.45
11
164.925
21
-117.95
0
LINE
8
Black
10
163.655
20
-117.95
11
163.055
21
-117.95
0
LINE
8
Black
10
163.055
20
-117.95
11
163.055
21
-116.45
0
LINE
8
Black
10
163.055
20
-116.45
11
163.655
21
-116.45
0
LINE
8
Black
10
163.655
20
-116.45
11
163.655
21
-117.95
0
LINE
8
Black
10
162.385
20
-117.95
11
161.785
21
-117.95
0
LINE
8
Black
10
161.785
20
-117.95
11
161.785
21
-116.45
0
LINE
8
Black
10
161.785
20
-116.45
11
162.385
21
-116.45
0
LINE
8
Black
10
162.385
20
-116.45
11
162.385
21
-117.95
0
LINE
8
Black
10
161.115
20
-117.95
11
160.515
21
-117.95
0
LINE
8
Black
10
160.515
20
-117.95
11
160.515
21
-116.45
0
LINE
8
Black
10
160.515
20
-116.45
11
161.115
21
-116.45
0
LINE
8
Black
10
161.115
20
-116.45
11
161.115
21
-117.95
0
LINE
8
Black
10
159.845
20
-117.95
11
159.245
21
-117.95
0
LINE
8
Black
10
159.245
20
-117.95
11
159.245
21
-116.45
0
LINE
8
Black
10
159.245
20
-116.45
11
159.845
21
-116.45
0
LINE
8
Black
10
159.845
20
-116.45
11
159.845
21
-117.95
0
LINE
8
Black
10
157.305
20
-117.95
11
156.705
21
-117.95
0
LINE
8
Black
10
156.705
20
-117.95
11
156.705
21
-116.45
0
LINE
8
Black
10
156.705
20
-116.45
11
157.305
21
-116.45
0
LINE
8
Black
10
157.305
20
-116.45
11
157.305
21
-117.95
0
LINE
8
Black
10
156.035
20
-117.95
11
155.435
21
-117.95
0
LINE
8
Black
10
155.435
20
-117.95
11
155.435
21
-116.45
0
LINE
8
Black
10
155.435
20
-116.45
11
156.035
21
-116.45
0
LINE
8
Black
10
156.035
20
-116.45
11
156.035
21
-117.95
0
LINE
8
Black
10
128.31
20
-117.6
11
127.41
21
-117.6
0
LINE
8
Black
10
127.41
20
-117.6
11
127.41
21
-116.4
0
LINE
8
Black
10
127.41
20
-116.4
11
128.31
21
-116.4
0
LINE
8
Black
10
128.31
20
-116.4
11
128.31
21
-117.6
0
LINE
8
Black
10
120.845
20
-117.375
11
119.295
21
-117.375
0
LINE
8
Black
10
119.295
20
-117.375
11
119.295
21
-116.775
0
LINE
8
Black
10
119.295
20
-116.775
11
120.845
21
-116.775
0
LINE
8
Black
10
120.845
20
-116.775
11
120.845
21
-117.375
0
LINE
8
Black
10
126.245
20
-117.375
11
124.695
21
-117.375
0
LINE
8
Black
10
124.695
20
-117.375
11
124.695
21
-116.775
0
LINE
8
Black
10
124.695
20
-116.775
11
126.245
21
-116.775
0
LINE
8
Black
10
126.245
20
-116.775
11
126.245
21
-117.375
0
LINE
8
Black
10
143.35
20
-117.365
11
141.85
21
-117.365
0
LINE
8
Black
10
141.85
20
-117.365
11
141.85
21
-116.765
0
LINE
8
Black
10
141.85
20
-116.765
11
143.35
21
-116.765
0
LINE
8
Black
10
143.35
20
-116.765
11
143.35
21
-117.365
0
LINE
8
Black
10
137.95
20
-117.365
11
136.45
21
-117.365
0
LINE
8
Black
10
136.45
20
-117.365
11
136.45
21
-116.765
0
LINE
8
Black
10
136.45
20
-116.765
11
137.95
21
-116.765
0
LINE
8
Black
10
137.95
20
-116.765
11
137.95
21
-117.365
0
LINE
8
Black
10
198.68
20
-116.96
11
197.78
21
-116.96
0
LINE
8
Black
10
197.78
20
-116.96
11
197.78
21
-115.76
0
LINE
8
Black
10
197.78
20
-115.76
11
198.68
21
-115.76
0
LINE
8
Black
10
198.68
20
-115.76
11
198.68
21
-116.96
0
LINE
8
Black
10
115.87
20
-116.48
11
114.97
21
-116.48
0
LINE
8
Black
10
114.97
20
-116.48
11
114.97
21
-115.28
0
LINE
8
Black
10
114.97
20
-115.28
11
115.87
21
-115.28
0
LINE
8
Black
10
115.87
20
-115.28
11
115.87
21
-116.48
0
LINE
8
Black
10
118.12
20
-116.45
11
117.22
21
-116.45
0
LINE
8
Black
10
117.22
20
-116.45
11
117.22
21
-115.25
0
LINE
8
Black
10
117.22
20
-115.25
11
118.12
21
-115.25
0
LINE
8
Black
10
118.12
20
-115.25
11
118.12
21
-116.45
0
LINE
8
Black
10
126.245
20
-116.105
11
124.695
21
-116.105
0
LINE
8
Black
10
124.695
20
-116.105
11
124.695
21
-115.505
0
LINE
8
Black
10
124.695
20
-115.505
11
126.245
21
-115.505
0
LINE
8
Black
10
126.245
20
-115.505
11
126.245
21
-116.105
0
LINE
8
Black
10
120.845
20
-116.105
11
119.295
21
-116.105
0
LINE
8
Black
10
119.295
20
-116.105
11
119.295
21
-115.505
0
LINE
8
Black
10
119.295
20
-115.505
11
120.845
21
-115.505
0
LINE
8
Black
10
120.845
20
-115.505
11
120.845
21
-116.105
0
LINE
8
Black
10
143.35
20
-116.095
11
141.85
21
-116.095
0
LINE
8
Black
10
141.85
20
-116.095
11
141.85
21
-115.495
0
LINE
8
Black
10
141.85
20
-115.495
11
143.35
21
-115.495
0
LINE
8
Black
10
143.35
20
-115.495
11
143.35
21
-116.095
0
LINE
8
Black
10
137.95
20
-116.095
11
136.45
21
-116.095
0
LINE
8
Black
10
136.45
20
-116.095
11
136.45
21
-115.495
0
LINE
8
Black
10
136.45
20
-115.495
11
137.95
21
-115.495
0
LINE
8
Black
10
137.95
20
-115.495
11
137.95
21
-116.095
0
LINE
8
Black
10
132.41
20
-115.995
11
131.21
21
-115.995
0
LINE
8
Black
10
131.21
20
-115.995
11
131.21
21
-115.245
0
LINE
8
Black
10
131.21
20
-115.245
11
132.41
21
-115.245
0
LINE
8
Black
10
132.41
20
-115.245
11
132.41
21
-115.995
0
LINE
8
Black
10
130.51
20
-115.995
11
129.31
21
-115.995
0
LINE
8
Black
10
129.31
20
-115.995
11
129.31
21
-115.245
0
LINE
8
Black
10
129.31
20
-115.245
11
130.51
21
-115.245
0
LINE
8
Black
10
130.51
20
-115.245
11
130.51
21
-115.995
0
LINE
8
Black
10
128.31
20
-115.4
11
127.41
21
-115.4
0
LINE
8
Black
10
127.41
20
-115.4
11
127.41
21
-114.2
0
LINE
8
Black
10
127.41
20
-114.2
11
128.31
21
-114.2
0
LINE
8
Black
10
128.31
20
-114.2
11
128.31
21
-115.4
0
LINE
8
Black
10
126.245
20
-114.835
11
124.695
21
-114.835
0
LINE
8
Black
10
124.695
20
-114.835
11
124.695
21
-114.235
0
LINE
8
Black
10
124.695
20
-114.235
11
126.245
21
-114.235
0
LINE
8
Black
10
126.245
20
-114.235
11
126.245
21
-114.835
0
LINE
8
Black
10
120.845
20
-114.835
11
119.295
21
-114.835
0
LINE
8
Black
10
119.295
20
-114.835
11
119.295
21
-114.235
0
LINE
8
Black
10
119.295
20
-114.235
11
120.845
21
-114.235
0
LINE
8
Black
10
120.845
20
-114.235
11
120.845
21
-114.835
0
LINE
8
Black
10
143.35
20
-114.825
11
141.85
21
-114.825
0
LINE
8
Black
10
141.85
20
-114.825
11
141.85
21
-114.225
0
LINE
8
Black
10
141.85
20
-114.225
11
143.35
21
-114.225
0
LINE
8
Black
10
143.35
20
-114.225
11
143.35
21
-114.825
0
LINE
8
Black
10
137.95
20
-114.825
11
136.45
21
-114.825
0
LINE
8
Black
10
136.45
20
-114.825
11
136.45
21
-114.225
0
LINE
8
Black
10
136.45
20
-114.225
11
137.95
21
-114.225
0
LINE
8
Black
10
137.95
20
-114.225
11
137.95
21
-114.825
0
LINE
8
Black
10
146.89
20
-114.375
11
145.69
21
-114.375
0
LINE
8
Black
10
145.69
20
-114.375
11
145.69
21
-113.625
0
LINE
8
Black
10
145.69
20
-113.625
11
146.89
21
-113.625
0
LINE
8
Black
10
146.89
20
-113.625
11
146.89
21
-114.375
0
LINE
8
Black
10
148.79
20
-114.375
11
147.59
21
-114.375
0
LINE
8
Black
10
147.59
20
-114.375
11
147.59
21
-113.625
0
LINE
8
Black
10
147.59
20
-113.625
11
148.79
21
-113.625
0
LINE
8
Black
10
148.79
20
-113.625
11
148.79
21
-114.375
0
LINE
8
Black
10
115.87
20
-114.28
11
114.97
21
-114.28
0
LINE
8
Black
10
114.97
20
-114.28
11
114.97
21
-113.08
0
LINE
8
Black
10
114.97
20
-113.08
11
115.87
21
-113.08
0
LINE
8
Black
10
115.87
20
-113.08
11
115.87
21
-114.28
0
LINE
8
Black
10
118.12
20
-114.25
11
117.22
21
-114.25
0
LINE
8
Black
10
117.22
20
-114.25
11
117.22
21
-113.05
0
LINE
8
Black
10
117.22
20
-113.05
11
118.12
21
-113.05
0
LINE
8
Black
10
118.12
20
-113.05
11
118.12
21
-114.25
0
LINE
8
Black
10
130.53
20
-114.225
11
129.33
21
-114.225
0
LINE
8
Black
10
129.33
20
-114.225
11
129.33
21
-113.475
0
LINE
8
Black
10
129.33
20
-113.475
11
130.53
21
-113.475
0
LINE
8
Black
10
130.53
20
-113.475
11
130.53
21
-114.225
0
LINE
8
Black
10
132.43
20
-114.225
11
131.23
21
-114.225
0
LINE
8
Black
10
131.23
20
-114.225
11
131.23
21
-113.475
0
LINE
8
Black
10
131.23
20
-113.475
11
132.43
21
-113.475
0
LINE
8
Black
10
132.43
20
-113.475
11
132.43
21
-114.225
0
LINE
8
Black
10
120.845
20
-113.565
11
119.295
21
-113.565
0
LINE
8
Black
10
119.295
20
-113.565
11
119.295
21
-112.965
0
LINE
8
Black
10
119.295
20
-112.965
11
120.845
21
-112.965
0
LINE
8
Black
10
120.845
20
-112.965
11
120.845
21
-113.565
0
LINE
8
Black
10
126.245
20
-113.565
11
124.695
21
-113.565
0
LINE
8
Black
10
124.695
20
-113.565
11
124.695
21
-112.965
0
LINE
8
Black
10
124.695
20
-112.965
11
126.245
21
-112.965
0
LINE
8
Black
10
126.245
20
-112.965
11
126.245
21
-113.565
0
LINE
8
Black
10
137.95
20
-113.555
11
136.45
21
-113.555
0
LINE
8
Black
10
136.45
20
-113.555
11
136.45
21
-112.955
0
LINE
8
Black
10
136.45
20
-112.955
11
137.95
21
-112.955
0
LINE
8
Black
10
137.95
20
-112.955
11
137.95
21
-113.555
0
LINE
8
Black
10
143.35
20
-113.555
11
141.85
21
-113.555
0
LINE
8
Black
10
141.85
20
-113.555
11
141.85
21
-112.955
0
LINE
8
Black
10
141.85
20
-112.955
11
143.35
21
-112.955
0
LINE
8
Black
10
143.35
20
-112.955
11
143.35
21
-113.555
0
LINE
8
Black
10
186.03
20
-112.82
11
185.13
21
-112.82
0
LINE
8
Black
10
185.13
20
-112.82
11
185.13
21
-111.62
0
LINE
8
Black
10
185.13
20
-111.62
11
186.03
21
-111.62
0
LINE
8
Black
10
186.03
20
-111.62
11
186.03
21
-112.82
0
LINE
8
Black
10
190.89
20
-112.76
11
189.99
21
-112.76
0
LINE
8
Black
10
189.99
20
-112.76
11
189.99
21
-111.56
0
LINE
8
Black
10
189.99
20
-111.56
11
190.89
21
-111.56
0
LINE
8
Black
10
190.89
20
-111.56
11
190.89
21
-112.76
0
LINE
8
Black
10
188.57
20
-112.76
11
187.67
21
-112.76
0
LINE
8
Black
10
187.67
20
-112.76
11
187.67
21
-111.56
0
LINE
8
Black
10
187.67
20
-111.56
11
188.57
21
-111.56
0
LINE
8
Black
10
188.57
20
-111.56
11
188.57
21
-112.76
0
LINE
8
Black
10
193.12
20
-112.73
11
192.22
21
-112.73
0
LINE
8
Black
10
192.22
20
-112.73
11
192.22
21
-111.53
0
LINE
8
Black
10
192.22
20
-111.53
11
193.12
21
-111.53
0
LINE
8
Black
10
193.12
20
-111.53
11
193.12
21
-112.73
0
LINE
8
Black
10
159.845
20
-112.55
11
159.245
21
-112.55
0
LINE
8
Black
10
159.245
20
-112.55
11
159.245
21
-111.05
0
LINE
8
Black
10
159.245
20
-111.05
11
159.845
21
-111.05
0
LINE
8
Black
10
159.845
20
-111.05
11
159.845
21
-112.55
0
LINE
8
Black
10
156.035
20
-112.55
11
155.435
21
-112.55
0
LINE
8
Black
10
155.435
20
-112.55
11
155.435
21
-111.05
0
LINE
8
Black
10
155.435
20
-111.05
11
156.035
21
-111.05
0
LINE
8
Black
10
156.035
20
-111.05
11
156.035
21
-112.55
0
LINE
8
Black
10
157.305
20
-112.55
11
156.705
21
-112.55
0
LINE
8
Black
10
156.705
20
-112.55
11
156.705
21
-111.05
0
LINE
8
Black
10
156.705
20
-111.05
11
157.305
21
-111.05
0
LINE
8
Black
10
157.305
20
-111.05
11
157.305
21
-112.55
0
LINE
8
Black
10
158.575
20
-112.55
11
157.975
21
-112.55
0
LINE
8
Black
10
157.975
20
-112.55
11
157.975
21
-111.05
0
LINE
8
Black
10
157.975
20
-111.05
11
158.575
21
-111.05
0
LINE
8
Black
10
158.575
20
-111.05
11
158.575
21
-112.55
0
LINE
8
Black
10
164.925
20
-112.55
11
164.325
21
-112.55
0
LINE
8
Black
10
164.325
20
-112.55
11
164.325
21
-111.05
0
LINE
8
Black
10
164.325
20
-111.05
11
164.925
21
-111.05
0
LINE
8
Black
10
164.925
20
-111.05
11
164.925
21
-112.55
0
LINE
8
Black
10
163.655
20
-112.55
11
163.055
21
-112.55
0
LINE
8
Black
10
163.055
20
-112.55
11
163.055
21
-111.05
0
LINE
8
Black
10
163.055
20
-111.05
11
163.655
21
-111.05
0
LINE
8
Black
10
163.655
20
-111.05
11
163.655
21
-112.55
0
LINE
8
Black
10
162.385
20
-112.55
11
161.785
21
-112.55
0
LINE
8
Black
10
161.785
20
-112.55
11
161.785
21
-111.05
0
LINE
8
Black
10
161.785
20
-111.05
11
162.385
21
-111.05
0
LINE
8
Black
10
162.385
20
-111.05
11
162.385
21
-112.55
0
LINE
8
Black
10
161.115
20
-112.55
11
160.515
21
-112.55
0
LINE
8
Black
10
160.515
20
-112.55
11
160.515
21
-111.05
0
LINE
8
Black
10
160.515
20
-111.05
11
161.115
21
-111.05
0
LINE
8
Black
10
161.115
20
-111.05
11
161.115
21
-112.55
0
LINE
8
Black
10
148.76
20
-112.485
11
147.56
21
-112.485
0
LINE
8
Black
10
147.56
20
-112.485
11
147.56
21
-111.735
0
LINE
8
Black
10
147.56
20
-111.735
11
148.76
21
-111.735
0
LINE
8
Black
10
148.76
20
-111.735
11
148.76
21
-112.485
0
LINE
8
Black
10
146.86
20
-112.485
11
145.66
21
-112.485
0
LINE
8
Black
10
145.66
20
-112.485
11
145.66
21
-111.735
0
LINE
8
Black
10
145.66
20
-111.735
11
146.86
21
-111.735
0
LINE
8
Black
10
146.86
20
-111.735
11
146.86
21
-112.485
0
LINE
8
Black
10
130.55
20
-112.395
11
129.35
21
-112.395
0
LINE
8
Black
10
129.35
20
-112.395
11
129.35
21
-111.645
0
LINE
8
Black
10
129.35
20
-111.645
11
130.55
21
-111.645
0
LINE
8
Black
10
130.55
20
-111.645
11
130.55
21
-112.395
0
LINE
8
Black
10
132.45
20
-112.395
11
131.25
21
-112.395
0
LINE
8
Black
10
131.25
20
-112.395
11
131.25
21
-111.645
0
LINE
8
Black
10
131.25
20
-111.645
11
132.45
21
-111.645
0
LINE
8
Black
10
132.45
20
-111.645
11
132.45
21
-112.395
0
LINE
8
Black
10
143.35
20
-112.285
11
141.85
21
-112.285
0
LINE
8
Black
10
141.85
20
-112.285
11
141.85
21
-111.685
0
LINE
8
Black
10
141.85
20
-111.685
11
143.35
21
-111.685
0
LINE
8
Black
10
143.35
20
-111.685
11
143.35
21
-112.285
0
LINE
8
Black
10
137.95
20
-112.285
11
136.45
21
-112.285
0
LINE
8
Black
10
136.45
20
-112.285
11
136.45
21
-111.685
0
LINE
8
Black
10
136.45
20
-111.685
11
137.95
21
-111.685
0
LINE
8
Black
10
137.95
20
-111.685
11
137.95
21
-112.285
0
LINE
8
Black
10
118.275
20
-111.9
11
117.525
21
-111.9
0
LINE
8
Black
10
117.525
20
-111.9
11
117.525
21
-110.7
0
LINE
8
Black
10
117.525
20
-110.7
11
118.275
21
-110.7
0
LINE
8
Black
10
118.275
20
-110.7
11
118.275
21
-111.9
0
LINE
8
Black
10
123.22
20
-111.54
11
122.02
21
-111.54
0
LINE
8
Black
10
122.02
20
-111.54
11
122.02
21
-110.64
0
LINE
8
Black
10
122.02
20
-110.64
11
123.22
21
-110.64
0
LINE
8
Black
10
123.22
20
-110.64
11
123.22
21
-111.54
0
LINE
8
Black
10
125.42
20
-111.54
11
124.22
21
-111.54
0
LINE
8
Black
10
124.22
20
-111.54
11
124.22
21
-110.64
0
LINE
8
Black
10
124.22
20
-110.64
11
125.42
21
-110.64
0
LINE
8
Black
10
125.42
20
-110.64
11
125.42
21
-111.54
0
LINE
8
Black
10
143.35
20
-111.015
11
141.85
21
-111.015
0
LINE
8
Black
10
141.85
20
-111.015
11
141.85
21
-110.415
0
LINE
8
Black
10
141.85
20
-110.415
11
143.35
21
-110.415
0
LINE
8
Black
10
143.35
20
-110.415
11
143.35
21
-111.015
0
LINE
8
Black
10
137.95
20
-111.015
11
136.45
21
-111.015
0
LINE
8
Black
10
136.45
20
-111.015
11
136.45
21
-110.415
0
LINE
8
Black
10
136.45
20
-110.415
11
137.95
21
-110.415
0
LINE
8
Black
10
137.95
20
-110.415
11
137.95
21
-111.015
0
LINE
8
Black
10
146.85
20
-110.705
11
145.65
21
-110.705
0
LINE
8
Black
10
145.65
20
-110.705
11
145.65
21
-109.955
0
LINE
8
Black
10
145.65
20
-109.955
11
146.85
21
-109.955
0
LINE
8
Black
10
146.85
20
-109.955
11
146.85
21
-110.705
0
LINE
8
Black
10
148.75
20
-110.705
11
147.55
21
-110.705
0
LINE
8
Black
10
147.55
20
-110.705
11
147.55
21
-109.955
0
LINE
8
Black
10
147.55
20
-109.955
11
148.75
21
-109.955
0
LINE
8
Black
10
148.75
20
-109.955
11
148.75
21
-110.705
0
LINE
8
Black
10
132.45
20
-110.695
11
131.25
21
-110.695
0
LINE
8
Black
10
131.25
20
-110.695
11
131.25
21
-109.945
0
LINE
8
Black
10
131.25
20
-109.945
11
132.45
21
-109.945
0
LINE
8
Black
10
132.45
20
-109.945
11
132.45
21
-110.695
0
LINE
8
Black
10
130.55
20
-110.695
11
129.35
21
-110.695
0
LINE
8
Black
10
129.35
20
-110.695
11
129.35
21
-109.945
0
LINE
8
Black
10
129.35
20
-109.945
11
130.55
21
-109.945
0
LINE
8
Black
10
130.55
20
-109.945
11
130.55
21
-110.695
0
LINE
8
Black
10
186.03
20
-110.62
11
185.13
21
-110.62
0
LINE
8
Black
10
185.13
20
-110.62
11
185.13
21
-109.42
0
LINE
8
Black
10
185.13
20
-109.42
11
186.03
21
-109.42
0
LINE
8
Black
10
186.03
20
-109.42
11
186.03
21
-110.62
0
LINE
8
Black
10
190.89
20
-110.56
11
189.99
21
-110.56
0
LINE
8
Black
10
189.99
20
-110.56
11
189.99
21
-109.36
0
LINE
8
Black
10
189.99
20
-109.36
11
190.89
21
-109.36
0
LINE
8
Black
10
190.89
20
-109.36
11
190.89
21
-110.56
0
LINE
8
Black
10
188.57
20
-110.56
11
187.67
21
-110.56
0
LINE
8
Black
10
187.67
20
-110.56
11
187.67
21
-109.36
0
LINE
8
Black
10
187.67
20
-109.36
11
188.57
21
-109.36
0
LINE
8
Black
10
188.57
20
-109.36
11
188.57
21
-110.56
0
LINE
8
Black
10
193.12
20
-110.53
11
192.22
21
-110.53
0
LINE
8
Black
10
192.22
20
-110.53
11
192.22
21
-109.33
0
LINE
8
Black
10
192.22
20
-109.33
11
193.12
21
-109.33
0
LINE
8
Black
10
193.12
20
-109.33
11
193.12
21
-110.53
0
LINE
8
Black
10
118.275
20
-110
11
117.525
21
-110
0
LINE
8
Black
10
117.525
20
-110
11
117.525
21
-108.8
0
LINE
8
Black
10
117.525
20
-108.8
11
118.275
21
-108.8
0
LINE
8
Black
10
118.275
20
-108.8
11
118.275
21
-110
0
LINE
8
Black
10
143.35
20
-109.745
11
141.85
21
-109.745
0
LINE
8
Black
10
141.85
20
-109.745
11
141.85
21
-109.145
0
LINE
8
Black
10
141.85
20
-109.145
11
143.35
21
-109.145
0
LINE
8
Black
10
143.35
20
-109.145
11
143.35
21
-109.745
0
LINE
8
Black
10
137.95
20
-109.745
11
136.45
21
-109.745
0
LINE
8
Black
10
136.45
20
-109.745
11
136.45
21
-109.145
0
LINE
8
Black
10
136.45
20
-109.145
11
137.95
21
-109.145
0
LINE
8
Black
10
137.95
20
-109.145
11
137.95
21
-109.745
0
LINE
8
Black
10
197.15
20
-109.49
11
196.25
21
-109.49
0
LINE
8
Black
10
196.25
20
-109.49
11
196.25
21
-108.29
0
LINE
8
Black
10
196.25
20
-108.29
11
197.15
21
-108.29
0
LINE
8
Black
10
197.15
20
-108.29
11
197.15
21
-109.49
0
LINE
8
Black
10
166.215
20
-108.725
11
164.265
21
-108.725
0
LINE
8
Black
10
164.265
20
-108.725
11
164.265
21
-108.125
0
LINE
8
Black
10
164.265
20
-108.125
11
166.215
21
-108.125
0
LINE
8
Black
10
166.215
20
-108.125
11
166.215
21
-108.725
0
LINE
8
Black
10
156.815
20
-108.725
11
154.865
21
-108.725
0
LINE
8
Black
10
154.865
20
-108.725
11
154.865
21
-108.125
0
LINE
8
Black
10
154.865
20
-108.125
11
156.815
21
-108.125
0
LINE
8
Black
10
156.815
20
-108.125
11
156.815
21
-108.725
0
LINE
8
Black
10
137.95
20
-108.475
11
136.45
21
-108.475
0
LINE
8
Black
10
136.45
20
-108.475
11
136.45
21
-107.875
0
LINE
8
Black
10
136.45
20
-107.875
11
137.95
21
-107.875
0
LINE
8
Black
10
137.95
20
-107.875
11
137.95
21
-108.475
0
LINE
8
Black
10
143.35
20
-108.475
11
141.85
21
-108.475
0
LINE
8
Black
10
141.85
20
-108.475
11
141.85
21
-107.875
0
LINE
8
Black
10
141.85
20
-107.875
11
143.35
21
-107.875
0
LINE
8
Black
10
143.35
20
-107.875
11
143.35
21
-108.475
0
LINE
8
Black
10
146.83
20
-108.44
11
145.63
21
-108.44
0
LINE
8
Black
10
145.63
20
-108.44
11
145.63
21
-107.54
0
LINE
8
Black
10
145.63
20
-107.54
11
146.83
21
-107.54
0
LINE
8
Black
10
146.83
20
-107.54
11
146.83
21
-108.44
0
LINE
8
Black
10
149.03
20
-108.44
11
147.83
21
-108.44
0
LINE
8
Black
10
147.83
20
-108.44
11
147.83
21
-107.54
0
LINE
8
Black
10
147.83
20
-107.54
11
149.03
21
-107.54
0
LINE
8
Black
10
149.03
20
-107.54
11
149.03
21
-108.44
0
LINE
8
Black
10
166.215
20
-107.455
11
164.265
21
-107.455
0
LINE
8
Black
10
164.265
20
-107.455
11
164.265
21
-106.855
0
LINE
8
Black
10
164.265
20
-106.855
11
166.215
21
-106.855
0
LINE
8
Black
10
166.215
20
-106.855
11
166.215
21
-107.455
0
LINE
8
Black
10
156.815
20
-107.455
11
154.865
21
-107.455
0
LINE
8
Black
10
154.865
20
-107.455
11
154.865
21
-106.855
0
LINE
8
Black
10
154.865
20
-106.855
11
156.815
21
-106.855
0
LINE
8
Black
10
156.815
20
-106.855
11
156.815
21
-107.455
0
LINE
8
Black
10
121.825
20
-107.33
11
121.075
21
-107.33
0
LINE
8
Black
10
121.075
20
-107.33
11
121.075
21
-106.13
0
LINE
8
Black
10
121.075
20
-106.13
11
121.825
21
-106.13
0
LINE
8
Black
10
121.825
20
-106.13
11
121.825
21
-107.33
0
LINE
8
Black
10
128.125
20
-107.33
11
127.375
21
-107.33
0
LINE
8
Black
10
127.375
20
-107.33
11
127.375
21
-106.13
0
LINE
8
Black
10
127.375
20
-106.13
11
128.125
21
-106.13
0
LINE
8
Black
10
128.125
20
-106.13
11
128.125
21
-107.33
0
LINE
8
Black
10
116.495
20
-107.33
11
115.745
21
-107.33
0
LINE
8
Black
10
115.745
20
-107.33
11
115.745
21
-106.13
0
LINE
8
Black
10
115.745
20
-106.13
11
116.495
21
-106.13
0
LINE
8
Black
10
116.495
20
-106.13
11
116.495
21
-107.33
0
LINE
8
Black
10
118.255
20
-107.33
11
117.505
21
-107.33
0
LINE
8
Black
10
117.505
20
-107.33
11
117.505
21
-106.13
0
LINE
8
Black
10
117.505
20
-106.13
11
118.255
21
-106.13
0
LINE
8
Black
10
118.255
20
-106.13
11
118.255
21
-107.33
0
LINE
8
Black
10
114.755
20
-107.33
11
114.005
21
-107.33
0
LINE
8
Black
10
114.005
20
-107.33
11
114.005
21
-106.13
0
LINE
8
Black
10
114.005
20
-106.13
11
114.755
21
-106.13
0
LINE
8
Black
10
114.755
20
-106.13
11
114.755
21
-107.33
0
LINE
8
Black
10
126.025
20
-107.33
11
125.275
21
-107.33
0
LINE
8
Black
10
125.275
20
-107.33
11
125.275
21
-106.13
0
LINE
8
Black
10
125.275
20
-106.13
11
126.025
21
-106.13
0
LINE
8
Black
10
126.025
20
-106.13
11
126.025
21
-107.33
0
LINE
8
Black
10
120.025
20
-107.33
11
119.275
21
-107.33
0
LINE
8
Black
10
119.275
20
-107.33
11
119.275
21
-106.13
0
LINE
8
Black
10
119.275
20
-106.13
11
120.025
21
-106.13
0
LINE
8
Black
10
120.025
20
-106.13
11
120.025
21
-107.33
0
LINE
8
Black
10
129.925
20
-107.33
11
129.175
21
-107.33
0
LINE
8
Black
10
129.175
20
-107.33
11
129.175
21
-106.13
0
LINE
8
Black
10
129.175
20
-106.13
11
129.925
21
-106.13
0
LINE
8
Black
10
129.925
20
-106.13
11
129.925
21
-107.33
0
LINE
8
Black
10
124.225
20
-107.33
11
123.475
21
-107.33
0
LINE
8
Black
10
123.475
20
-107.33
11
123.475
21
-106.13
0
LINE
8
Black
10
123.475
20
-106.13
11
124.225
21
-106.13
0
LINE
8
Black
10
124.225
20
-106.13
11
124.225
21
-107.33
0
LINE
8
Black
10
197.15
20
-107.29
11
196.25
21
-107.29
0
LINE
8
Black
10
196.25
20
-107.29
11
196.25
21
-106.09
0
LINE
8
Black
10
196.25
20
-106.09
11
197.15
21
-106.09
0
LINE
8
Black
10
197.15
20
-106.09
11
197.15
21
-107.29
0
LINE
8
Black
10
166.215
20
-106.185
11
164.265
21
-106.185
0
LINE
8
Black
10
164.265
20
-106.185
11
164.265
21
-105.585
0
LINE
8
Black
10
164.265
20
-105.585
11
166.215
21
-105.585
0
LINE
8
Black
10
166.215
20
-105.585
11
166.215
21
-106.185
0
LINE
8
Black
10
156.815
20
-106.185
11
154.865
21
-106.185
0
LINE
8
Black
10
154.865
20
-106.185
11
154.865
21
-105.585
0
LINE
8
Black
10
154.865
20
-105.585
11
156.815
21
-105.585
0
LINE
8
Black
10
156.815
20
-105.585
11
156.815
21
-106.185
0
LINE
8
Black
10
121.825
20
-105.43
11
121.075
21
-105.43
0
LINE
8
Black
10
121.075
20
-105.43
11
121.075
21
-104.23
0
LINE
8
Black
10
121.075
20
-104.23
11
121.825
21
-104.23
0
LINE
8
Black
10
121.825
20
-104.23
11
121.825
21
-105.43
0
LINE
8
Black
10
120.025
20
-105.43
11
119.275
21
-105.43
0
LINE
8
Black
10
119.275
20
-105.43
11
119.275
21
-104.23
0
LINE
8
Black
10
119.275
20
-104.23
11
120.025
21
-104.23
0
LINE
8
Black
10
120.025
20
-104.23
11
120.025
21
-105.43
0
LINE
8
Black
10
124.225
20
-105.43
11
123.475
21
-105.43
0
LINE
8
Black
10
123.475
20
-105.43
11
123.475
21
-104.23
0
LINE
8
Black
10
123.475
20
-104.23
11
124.225
21
-104.23
0
LINE
8
Black
10
124.225
20
-104.23
11
124.225
21
-105.43
0
LINE
8
Black
10
128.125
20
-105.43
11
127.375
21
-105.43
0
LINE
8
Black
10
127.375
20
-105.43
11
127.375
21
-104.23
0
LINE
8
Black
10
127.375
20
-104.23
11
128.125
21
-104.23
0
LINE
8
Black
10
128.125
20
-104.23
11
128.125
21
-105.43
0
LINE
8
Black
10
126.025
20
-105.43
11
125.275
21
-105.43
0
LINE
8
Black
10
125.275
20
-105.43
11
125.275
21
-104.23
0
LINE
8
Black
10
125.275
20
-104.23
11
126.025
21
-104.23
0
LINE
8
Black
10
126.025
20
-104.23
11
126.025
21
-105.43
0
LINE
8
Black
10
118.255
20
-105.43
11
117.505
21
-105.43
0
LINE
8
Black
10
117.505
20
-105.43
11
117.505
21
-104.23
0
LINE
8
Black
10
117.505
20
-104.23
11
118.255
21
-104.23
0
LINE
8
Black
10
118.255
20
-104.23
11
118.255
21
-105.43
0
LINE
8
Black
10
116.495
20
-105.43
11
115.745
21
-105.43
0
LINE
8
Black
10
115.745
20
-105.43
11
115.745
21
-104.23
0
LINE
8
Black
10
115.745
20
-104.23
11
116.495
21
-104.23
0
LINE
8
Black
10
116.495
20
-104.23
11
116.495
21
-105.43
0
LINE
8
Black
10
129.925
20
-105.43
11
129.175
21
-105.43
0
LINE
8
Black
10
129.175
20
-105.43
11
129.175
21
-104.23
0
LINE
8
Black
10
129.175
20
-104.23
11
129.925
21
-104.23
0
LINE
8
Black
10
129.925
20
-104.23
11
129.925
21
-105.43
0
LINE
8
Black
10
114.755
20
-105.43
11
114.005
21
-105.43
0
LINE
8
Black
10
114.005
20
-105.43
11
114.005
21
-104.23
0
LINE
8
Black
10
114.005
20
-104.23
11
114.755
21
-104.23
0
LINE
8
Black
10
114.755
20
-104.23
11
114.755
21
-105.43
0
LINE
8
Black
10
156.815
20
-104.915
11
154.865
21
-104.915
0
LINE
8
Black
10
154.865
20
-104.915
11
154.865
21
-104.315
0
LINE
8
Black
10
154.865
20
-104.315
11
156.815
21
-104.315
0
LINE
8
Black
10
156.815
20
-104.315
11
156.815
21
-104.915
0
LINE
8
Black
10
166.215
20
-104.915
11
164.265
21
-104.915
0
LINE
8
Black
10
164.265
20
-104.915
11
164.265
21
-104.315
0
LINE
8
Black
10
164.265
20
-104.315
11
166.215
21
-104.315
0
LINE
8
Black
10
166.215
20
-104.315
11
166.215
21
-104.915
0
LINE
8
Black
10
190.61
20
-104
11
190.01
21
-104
0
LINE
8
Black
10
190.01
20
-104
11
190.01
21
-102.5
0
LINE
8
Black
10
190.01
20
-102.5
11
190.61
21
-102.5
0
LINE
8
Black
10
190.61
20
-102.5
11
190.61
21
-104
0
LINE
8
Black
10
186.8
20
-104
11
186.2
21
-104
0
LINE
8
Black
10
186.2
20
-104
11
186.2
21
-102.5
0
LINE
8
Black
10
186.2
20
-102.5
11
186.8
21
-102.5
0
LINE
8
Black
10
186.8
20
-102.5
11
186.8
21
-104
0
LINE
8
Black
10
188.07
20
-104
11
187.47
21
-104
0
LINE
8
Black
10
187.47
20
-104
11
187.47
21
-102.5
0
LINE
8
Black
10
187.47
20
-102.5
11
188.07
21
-102.5
0
LINE
8
Black
10
188.07
20
-102.5
11
188.07
21
-104
0
LINE
8
Black
10
189.34
20
-104
11
188.74
21
-104
0
LINE
8
Black
10
188.74
20
-104
11
188.74
21
-102.5
0
LINE
8
Black
10
188.74
20
-102.5
11
189.34
21
-102.5
0
LINE
8
Black
10
189.34
20
-102.5
11
189.34
21
-104
0
LINE
8
Black
10
191.88
20
-104
11
191.28
21
-104
0
LINE
8
Black
10
191.28
20
-104
11
191.28
21
-102.5
0
LINE
8
Black
10
191.28
20
-102.5
11
191.88
21
-102.5
0
LINE
8
Black
10
191.88
20
-102.5
11
191.88
21
-104
0
LINE
8
Black
10
193.15
20
-104
11
192.55
21
-104
0
LINE
8
Black
10
192.55
20
-104
11
192.55
21
-102.5
0
LINE
8
Black
10
192.55
20
-102.5
11
193.15
21
-102.5
0
LINE
8
Black
10
193.15
20
-102.5
11
193.15
21
-104
0
LINE
8
Black
10
194.42
20
-104
11
193.82
21
-104
0
LINE
8
Black
10
193.82
20
-104
11
193.82
21
-102.5
0
LINE
8
Black
10
193.82
20
-102.5
11
194.42
21
-102.5
0
LINE
8
Black
10
194.42
20
-102.5
11
194.42
21
-104
0
LINE
8
Black
10
144.42
20
-103.68
11
143.32
21
-103.68
0
LINE
8
Black
10
143.32
20
-103.68
11
143.32
21
-100.68
0
LINE
8
Black
10
143.32
20
-100.68
11
144.42
21
-100.68
0
LINE
8
Black
10
144.42
20
-100.68
11
144.42
21
-103.68
0
LINE
8
Black
10
146.42
20
-103.68
11
145.32
21
-103.68
0
LINE
8
Black
10
145.32
20
-103.68
11
145.32
21
-100.68
0
LINE
8
Black
10
145.32
20
-100.68
11
146.42
21
-100.68
0
LINE
8
Black
10
146.42
20
-100.68
11
146.42
21
-103.68
0
LINE
8
Black
10
156.815
20
-103.645
11
154.865
21
-103.645
0
LINE
8
Black
10
154.865
20
-103.645
11
154.865
21
-103.045
0
LINE
8
Black
10
154.865
20
-103.045
11
156.815
21
-103.045
0
LINE
8
Black
10
156.815
20
-103.045
11
156.815
21
-103.645
0
LINE
8
Black
10
166.215
20
-103.645
11
164.265
21
-103.645
0
LINE
8
Black
10
164.265
20
-103.645
11
164.265
21
-103.045
0
LINE
8
Black
10
164.265
20
-103.045
11
166.215
21
-103.045
0
LINE
8
Black
10
166.215
20
-103.045
11
166.215
21
-103.645
0
LINE
8
Black
10
166.215
20
-102.375
11
164.265
21
-102.375
0
LINE
8
Black
10
164.265
20
-102.375
11
164.265
21
-101.775
0
LINE
8
Black
10
164.265
20
-101.775
11
166.215
21
-101.775
0
LINE
8
Black
10
166.215
20
-101.775
11
166.215
21
-102.375
0
LINE
8
Black
10
156.815
20
-102.375
11
154.865
21
-102.375
0
LINE
8
Black
10
154.865
20
-102.375
11
154.865
21
-101.775
0
LINE
8
Black
10
154.865
20
-101.775
11
156.815
21
-101.775
0
LINE
8
Black
10
156.815
20
-101.775
11
156.815
21
-102.375
0
LINE
8
Black
10
166.215
20
-101.105
11
164.265
21
-101.105
0
LINE
8
Black
10
164.265
20
-101.105
11
164.265
21
-100.505
0
LINE
8
Black
10
164.265
20
-100.505
11
166.215
21
-100.505
0
LINE
8
Black
10
166.215
20
-100.505
11
166.215
21
-101.105
0
LINE
8
Black
10
156.815
20
-101.105
11
154.865
21
-101.105
0
LINE
8
Black
10
154.865
20
-101.105
11
154.865
21
-100.505
0
LINE
8
Black
10
154.865
20
-100.505
11
156.815
21
-100.505
0
LINE
8
Black
10
156.815
20
-100.505
11
156.815
21
-101.105
0
LINE
8
Black
10
153.27
20
-100.46
11
151.27
21
-100.46
0
LINE
8
Black
10
151.27
20
-100.46
11
151.27
21
-99.86
0
LINE
8
Black
10
151.27
20
-99.86
11
153.27
21
-99.86
0
LINE
8
Black
10
153.27
20
-99.86
11
153.27
21
-100.46
0
LINE
8
Black
10
166.215
20
-99.835
11
164.265
21
-99.835
0
LINE
8
Black
10
164.265
20
-99.835
11
164.265
21
-99.235
0
LINE
8
Black
10
164.265
20
-99.235
11
166.215
21
-99.235
0
LINE
8
Black
10
166.215
20
-99.235
11
166.215
21
-99.835
0
LINE
8
Black
10
156.815
20
-99.835
11
154.865
21
-99.835
0
LINE
8
Black
10
154.865
20
-99.835
11
154.865
21
-99.235
0
LINE
8
Black
10
154.865
20
-99.235
11
156.815
21
-99.235
0
LINE
8
Black
10
156.815
20
-99.235
11
156.815
21
-99.835
0
LINE
8
Black
10
125.84
20
-99.745
11
125.54
21
-99.745
0
LINE
8
Black
10
125.54
20
-99.745
11
125.54
21
-98.495
0
LINE
8
Black
10
125.54
20
-98.495
11
125.84
21
-98.495
0
LINE
8
Black
10
125.84
20
-98.495
11
125.84
21
-99.745
0
LINE
8
Black
10
136.84
20
-99.745
11
136.54
21
-99.745
0
LINE
8
Black
10
136.54
20
-99.745
11
136.54
21
-98.495
0
LINE
8
Black
10
136.54
20
-98.495
11
136.84
21
-98.495
0
LINE
8
Black
10
136.84
20
-98.495
11
136.84
21
-99.745
0
LINE
8
Black
10
136.34
20
-99.745
11
136.04
21
-99.745
0
LINE
8
Black
10
136.04
20
-99.745
11
136.04
21
-98.495
0
LINE
8
Black
10
136.04
20
-98.495
11
136.34
21
-98.495
0
LINE
8
Black
10
136.34
20
-98.495
11
136.34
21
-99.745
0
LINE
8
Black
10
129.84
20
-99.745
11
129.54
21
-99.745
0
LINE
8
Black
10
129.54
20
-99.745
11
129.54
21
-98.495
0
LINE
8
Black
10
129.54
20
-98.495
11
129.84
21
-98.495
0
LINE
8
Black
10
129.84
20
-98.495
11
129.84
21
-99.745
0
LINE
8
Black
10
135.84
20
-99.745
11
135.54
21
-99.745
0
LINE
8
Black
10
135.54
20
-99.745
11
135.54
21
-98.495
0
LINE
8
Black
10
135.54
20
-98.495
11
135.84
21
-98.495
0
LINE
8
Black
10
135.84
20
-98.495
11
135.84
21
-99.745
0
LINE
8
Black
10
135.34
20
-99.745
11
135.04
21
-99.745
0
LINE
8
Black
10
135.04
20
-99.745
11
135.04
21
-98.495
0
LINE
8
Black
10
135.04
20
-98.495
11
135.34
21
-98.495
0
LINE
8
Black
10
135.34
20
-98.495
11
135.34
21
-99.745
0
LINE
8
Black
10
134.84
20
-99.745
11
134.54
21
-99.745
0
LINE
8
Black
10
134.54
20
-99.745
11
134.54
21
-98.495
0
LINE
8
Black
10
134.54
20
-98.495
11
134.84
21
-98.495
0
LINE
8
Black
10
134.84
20
-98.495
11
134.84
21
-99.745
0
LINE
8
Black
10
134.34
20
-99.745
11
134.04
21
-99.745
0
LINE
8
Black
10
134.04
20
-99.745
11
134.04
21
-98.495
0
LINE
8
Black
10
134.04
20
-98.495
11
134.34
21
-98.495
0
LINE
8
Black
10
134.34
20
-98.495
11
134.34
21
-99.745
0
LINE
8
Black
10
133.84
20
-99.745
11
133.54
21
-99.745
0
LINE
8
Black
10
133.54
20
-99.745
11
133.54
21
-98.495
0
LINE
8
Black
10
133.54
20
-98.495
11
133.84
21
-98.495
0
LINE
8
Black
10
133.84
20
-98.495
11
133.84
21
-99.745
0
LINE
8
Black
10
133.34
20
-99.745
11
133.04
21
-99.745
0
LINE
8
Black
10
133.04
20
-99.745
11
133.04
21
-98.495
0
LINE
8
Black
10
133.04
20
-98.495
11
133.34
21
-98.495
0
LINE
8
Black
10
133.34
20
-98.495
11
133.34
21
-99.745
0
LINE
8
Black
10
132.84
20
-99.745
11
132.54
21
-99.745
0
LINE
8
Black
10
132.54
20
-99.745
11
132.54
21
-98.495
0
LINE
8
Black
10
132.54
20
-98.495
11
132.84
21
-98.495
0
LINE
8
Black
10
132.84
20
-98.495
11
132.84
21
-99.745
0
LINE
8
Black
10
132.34
20
-99.745
11
132.04
21
-99.745
0
LINE
8
Black
10
132.04
20
-99.745
11
132.04
21
-98.495
0
LINE
8
Black
10
132.04
20
-98.495
11
132.34
21
-98.495
0
LINE
8
Black
10
132.34
20
-98.495
11
132.34
21
-99.745
0
LINE
8
Black
10
131.84
20
-99.745
11
131.54
21
-99.745
0
LINE
8
Black
10
131.54
20
-99.745
11
131.54
21
-98.495
0
LINE
8
Black
10
131.54
20
-98.495
11
131.84
21
-98.495
0
LINE
8
Black
10
131.84
20
-98.495
11
131.84
21
-99.745
0
LINE
8
Black
10
131.34
20
-99.745
11
131.04
21
-99.745
0
LINE
8
Black
10
131.04
20
-99.745
11
131.04
21
-98.495
0
LINE
8
Black
10
131.04
20
-98.495
11
131.34
21
-98.495
0
LINE
8
Black
10
131.34
20
-98.495
11
131.34
21
-99.745
0
LINE
8
Black
10
130.84
20
-99.745
11
130.54
21
-99.745
0
LINE
8
Black
10
130.54
20
-99.745
11
130.54
21
-98.495
0
LINE
8
Black
10
130.54
20
-98.495
11
130.84
21
-98.495
0
LINE
8
Black
10
130.84
20
-98.495
11
130.84
21
-99.745
0
LINE
8
Black
10
130.34
20
-99.745
11
130.04
21
-99.745
0
LINE
8
Black
10
130.04
20
-99.745
11
130.04
21
-98.495
0
LINE
8
Black
10
130.04
20
-98.495
11
130.34
21
-98.495
0
LINE
8
Black
10
130.34
20
-98.495
11
130.34
21
-99.745
0
LINE
8
Black
10
124.84
20
-99.745
11
124.54
21
-99.745
0
LINE
8
Black
10
124.54
20
-99.745
11
124.54
21
-98.495
0
LINE
8
Black
10
124.54
20
-98.495
11
124.84
21
-98.495
0
LINE
8
Black
10
124.84
20
-98.495
11
124.84
21
-99.745
0
LINE
8
Black
10
119.84
20
-99.745
11
119.54
21
-99.745
0
LINE
8
Black
10
119.54
20
-99.745
11
119.54
21
-98.495
0
LINE
8
Black
10
119.54
20
-98.495
11
119.84
21
-98.495
0
LINE
8
Black
10
119.84
20
-98.495
11
119.84
21
-99.745
0
LINE
8
Black
10
120.34
20
-99.745
11
120.04
21
-99.745
0
LINE
8
Black
10
120.04
20
-99.745
11
120.04
21
-98.495
0
LINE
8
Black
10
120.04
20
-98.495
11
120.34
21
-98.495
0
LINE
8
Black
10
120.34
20
-98.495
11
120.34
21
-99.745
0
LINE
8
Black
10
120.84
20
-99.745
11
120.54
21
-99.745
0
LINE
8
Black
10
120.54
20
-99.745
11
120.54
21
-98.495
0
LINE
8
Black
10
120.54
20
-98.495
11
120.84
21
-98.495
0
LINE
8
Black
10
120.84
20
-98.495
11
120.84
21
-99.745
0
LINE
8
Black
10
121.34
20
-99.745
11
121.04
21
-99.745
0
LINE
8
Black
10
121.04
20
-99.745
11
121.04
21
-98.495
0
LINE
8
Black
10
121.04
20
-98.495
11
121.34
21
-98.495
0
LINE
8
Black
10
121.34
20
-98.495
11
121.34
21
-99.745
0
LINE
8
Black
10
121.84
20
-99.745
11
121.54
21
-99.745
0
LINE
8
Black
10
121.54
20
-99.745
11
121.54
21
-98.495
0
LINE
8
Black
10
121.54
20
-98.495
11
121.84
21
-98.495
0
LINE
8
Black
10
121.84
20
-98.495
11
121.84
21
-99.745
0
LINE
8
Black
10
122.34
20
-99.745
11
122.04
21
-99.745
0
LINE
8
Black
10
122.04
20
-99.745
11
122.04
21
-98.495
0
LINE
8
Black
10
122.04
20
-98.495
11
122.34
21
-98.495
0
LINE
8
Black
10
122.34
20
-98.495
11
122.34
21
-99.745
0
LINE
8
Black
10
122.84
20
-99.745
11
122.54
21
-99.745
0
LINE
8
Black
10
122.54
20
-99.745
11
122.54
21
-98.495
0
LINE
8
Black
10
122.54
20
-98.495
11
122.84
21
-98.495
0
LINE
8
Black
10
122.84
20
-98.495
11
122.84
21
-99.745
0
LINE
8
Black
10
123.34
20
-99.745
11
123.04
21
-99.745
0
LINE
8
Black
10
123.04
20
-99.745
11
123.04
21
-98.495
0
LINE
8
Black
10
123.04
20
-98.495
11
123.34
21
-98.495
0
LINE
8
Black
10
123.34
20
-98.495
11
123.34
21
-99.745
0
LINE
8
Black
10
123.84
20
-99.745
11
123.54
21
-99.745
0
LINE
8
Black
10
123.54
20
-99.745
11
123.54
21
-98.495
0
LINE
8
Black
10
123.54
20
-98.495
11
123.84
21
-98.495
0
LINE
8
Black
10
123.84
20
-98.495
11
123.84
21
-99.745
0
LINE
8
Black
10
124.34
20
-99.745
11
124.04
21
-99.745
0
LINE
8
Black
10
124.04
20
-99.745
11
124.04
21
-98.495
0
LINE
8
Black
10
124.04
20
-98.495
11
124.34
21
-98.495
0
LINE
8
Black
10
124.34
20
-98.495
11
124.34
21
-99.745
0
LINE
8
Black
10
129.34
20
-99.745
11
129.04
21
-99.745
0
LINE
8
Black
10
129.04
20
-99.745
11
129.04
21
-98.495
0
LINE
8
Black
10
129.04
20
-98.495
11
129.34
21
-98.495
0
LINE
8
Black
10
129.34
20
-98.495
11
129.34
21
-99.745
0
LINE
8
Black
10
125.34
20
-99.745
11
125.04
21
-99.745
0
LINE
8
Black
10
125.04
20
-99.745
11
125.04
21
-98.495
0
LINE
8
Black
10
125.04
20
-98.495
11
125.34
21
-98.495
0
LINE
8
Black
10
125.34
20
-98.495
11
125.34
21
-99.745
0
LINE
8
Black
10
119.34
20
-99.745
11
119.04
21
-99.745
0
LINE
8
Black
10
119.04
20
-99.745
11
119.04
21
-98.495
0
LINE
8
Black
10
119.04
20
-98.495
11
119.34
21
-98.495
0
LINE
8
Black
10
119.34
20
-98.495
11
119.34
21
-99.745
0
LINE
8
Black
10
126.34
20
-99.745
11
126.04
21
-99.745
0
LINE
8
Black
10
126.04
20
-99.745
11
126.04
21
-98.495
0
LINE
8
Black
10
126.04
20
-98.495
11
126.34
21
-98.495
0
LINE
8
Black
10
126.34
20
-98.495
11
126.34
21
-99.745
0
LINE
8
Black
10
126.84
20
-99.745
11
126.54
21
-99.745
0
LINE
8
Black
10
126.54
20
-99.745
11
126.54
21
-98.495
0
LINE
8
Black
10
126.54
20
-98.495
11
126.84
21
-98.495
0
LINE
8
Black
10
126.84
20
-98.495
11
126.84
21
-99.745
0
LINE
8
Black
10
127.34
20
-99.745
11
127.04
21
-99.745
0
LINE
8
Black
10
127.04
20
-99.745
11
127.04
21
-98.495
0
LINE
8
Black
10
127.04
20
-98.495
11
127.34
21
-98.495
0
LINE
8
Black
10
127.34
20
-98.495
11
127.34
21
-99.745
0
LINE
8
Black
10
127.84
20
-99.745
11
127.54
21
-99.745
0
LINE
8
Black
10
127.54
20
-99.745
11
127.54
21
-98.495
0
LINE
8
Black
10
127.54
20
-98.495
11
127.84
21
-98.495
0
LINE
8
Black
10
127.84
20
-98.495
11
127.84
21
-99.745
0
LINE
8
Black
10
128.34
20
-99.745
11
128.04
21
-99.745
0
LINE
8
Black
10
128.04
20
-99.745
11
128.04
21
-98.495
0
LINE
8
Black
10
128.04
20
-98.495
11
128.34
21
-98.495
0
LINE
8
Black
10
128.34
20
-98.495
11
128.34
21
-99.745
0
LINE
8
Black
10
128.84
20
-99.745
11
128.54
21
-99.745
0
LINE
8
Black
10
128.54
20
-99.745
11
128.54
21
-98.495
0
LINE
8
Black
10
128.54
20
-98.495
11
128.84
21
-98.495
0
LINE
8
Black
10
128.84
20
-98.495
11
128.84
21
-99.745
0
LINE
8
Black
10
148.865
20
-99.35
11
147.415
21
-99.35
0
LINE
8
Black
10
147.415
20
-99.35
11
147.415
21
-95.35
0
LINE
8
Black
10
147.415
20
-95.35
11
148.865
21
-95.35
0
LINE
8
Black
10
148.865
20
-95.35
11
148.865
21
-99.35
0
LINE
8
Black
10
142.335
20
-99.33
11
140.885
21
-99.33
0
LINE
8
Black
10
140.885
20
-99.33
11
140.885
21
-95.33
0
LINE
8
Black
10
140.885
20
-95.33
11
142.335
21
-95.33
0
LINE
8
Black
10
142.335
20
-95.33
11
142.335
21
-99.33
0
LINE
8
Black
10
153.27
20
-99.26
11
151.27
21
-99.26
0
LINE
8
Black
10
151.27
20
-99.26
11
151.27
21
-98.66
0
LINE
8
Black
10
151.27
20
-98.66
11
153.27
21
-98.66
0
LINE
8
Black
10
153.27
20
-98.66
11
153.27
21
-99.26
0
LINE
8
Black
10
193.15
20
-98.6
11
192.55
21
-98.6
0
LINE
8
Black
10
192.55
20
-98.6
11
192.55
21
-97.1
0
LINE
8
Black
10
192.55
20
-97.1
11
193.15
21
-97.1
0
LINE
8
Black
10
193.15
20
-97.1
11
193.15
21
-98.6
0
LINE
8
Black
10
191.88
20
-98.6
11
191.28
21
-98.6
0
LINE
8
Black
10
191.28
20
-98.6
11
191.28
21
-97.1
0
LINE
8
Black
10
191.28
20
-97.1
11
191.88
21
-97.1
0
LINE
8
Black
10
191.88
20
-97.1
11
191.88
21
-98.6
0
LINE
8
Black
10
190.61
20
-98.6
11
190.01
21
-98.6
0
LINE
8
Black
10
190.01
20
-98.6
11
190.01
21
-97.1
0
LINE
8
Black
10
190.01
20
-97.1
11
190.61
21
-97.1
0
LINE
8
Black
10
190.61
20
-97.1
11
190.61
21
-98.6
0
LINE
8
Black
10
189.34
20
-98.6
11
188.74
21
-98.6
0
LINE
8
Black
10
188.74
20
-98.6
11
188.74
21
-97.1
0
LINE
8
Black
10
188.74
20
-97.1
11
189.34
21
-97.1
0
LINE
8
Black
10
189.34
20
-97.1
11
189.34
21
-98.6
0
LINE
8
Black
10
188.07
20
-98.6
11
187.47
21
-98.6
0
LINE
8
Black
10
187.47
20
-98.6
11
187.47
21
-97.1
0
LINE
8
Black
10
187.47
20
-97.1
11
188.07
21
-97.1
0
LINE
8
Black
10
188.07
20
-97.1
11
188.07
21
-98.6
0
LINE
8
Black
10
194.42
20
-98.6
11
193.82
21
-98.6
0
LINE
8
Black
10
193.82
20
-98.6
11
193.82
21
-97.1
0
LINE
8
Black
10
193.82
20
-97.1
11
194.42
21
-97.1
0
LINE
8
Black
10
194.42
20
-97.1
11
194.42
21
-98.6
0
LINE
8
Black
10
186.8
20
-98.6
11
186.2
21
-98.6
0
LINE
8
Black
10
186.2
20
-98.6
11
186.2
21
-97.1
0
LINE
8
Black
10
186.2
20
-97.1
11
186.8
21
-97.1
0
LINE
8
Black
10
186.8
20
-97.1
11
186.8
21
-98.6
0
LINE
8
Black
10
156.815
20
-98.565
11
154.865
21
-98.565
0
LINE
8
Black
10
154.865
20
-98.565
11
154.865
21
-97.965
0
LINE
8
Black
10
154.865
20
-97.965
11
156.815
21
-97.965
0
LINE
8
Black
10
156.815
20
-97.965
11
156.815
21
-98.565
0
LINE
8
Black
10
166.215
20
-98.565
11
164.265
21
-98.565
0
LINE
8
Black
10
164.265
20
-98.565
11
164.265
21
-97.965
0
LINE
8
Black
10
164.265
20
-97.965
11
166.215
21
-97.965
0
LINE
8
Black
10
166.215
20
-97.965
11
166.215
21
-98.565
0
LINE
8
Black
10
118.66
20
-98.3
11
116.66
21
-98.3
0
LINE
8
Black
10
116.66
20
-98.3
11
116.66
21
-95.3
0
LINE
8
Black
10
116.66
20
-95.3
11
118.66
21
-95.3
0
LINE
8
Black
10
118.66
20
-95.3
11
118.66
21
-98.3
0
LINE
8
Black
10
139.24
20
-98.3
11
137.24
21
-98.3
0
LINE
8
Black
10
137.24
20
-98.3
11
137.24
21
-95.3
0
LINE
8
Black
10
137.24
20
-95.3
11
139.24
21
-95.3
0
LINE
8
Black
10
139.24
20
-95.3
11
139.24
21
-98.3
0
LINE
8
Black
10
177.73
20
-98.13
11
176.83
21
-98.13
0
LINE
8
Black
10
176.83
20
-98.13
11
176.83
21
-96.93
0
LINE
8
Black
10
176.83
20
-96.93
11
177.73
21
-96.93
0
LINE
8
Black
10
177.73
20
-96.93
11
177.73
21
-98.13
0
LINE
8
Black
10
175.48
20
-98.13
11
174.58
21
-98.13
0
LINE
8
Black
10
174.58
20
-98.13
11
174.58
21
-96.93
0
LINE
8
Black
10
174.58
20
-96.93
11
175.48
21
-96.93
0
LINE
8
Black
10
175.48
20
-96.93
11
175.48
21
-98.13
0
LINE
8
Black
10
173.35
20
-98.13
11
172.45
21
-98.13
0
LINE
8
Black
10
172.45
20
-98.13
11
172.45
21
-96.93
0
LINE
8
Black
10
172.45
20
-96.93
11
173.35
21
-96.93
0
LINE
8
Black
10
173.35
20
-96.93
11
173.35
21
-98.13
0
LINE
8
Black
10
153.27
20
-98.06
11
151.27
21
-98.06
0
LINE
8
Black
10
151.27
20
-98.06
11
151.27
21
-97.46
0
LINE
8
Black
10
151.27
20
-97.46
11
153.27
21
-97.46
0
LINE
8
Black
10
153.27
20
-97.46
11
153.27
21
-98.06
0
LINE
8
Black
10
169.245
20
-97.85
11
168.495
21
-97.85
0
LINE
8
Black
10
168.495
20
-97.85
11
168.495
21
-96.65
0
LINE
8
Black
10
168.495
20
-96.65
11
169.245
21
-96.65
0
LINE
8
Black
10
169.245
20
-96.65
11
169.245
21
-97.85
0
LINE
8
Black
10
114.585
20
-97.85
11
113.835
21
-97.85
0
LINE
8
Black
10
113.835
20
-97.85
11
113.835
21
-96.65
0
LINE
8
Black
10
113.835
20
-96.65
11
114.585
21
-96.65
0
LINE
8
Black
10
114.585
20
-96.65
11
114.585
21
-97.85
0
LINE
8
Black
10
171.295
20
-97.83
11
170.545
21
-97.83
0
LINE
8
Black
10
170.545
20
-97.83
11
170.545
21
-96.63
0
LINE
8
Black
10
170.545
20
-96.63
11
171.295
21
-96.63
0
LINE
8
Black
10
171.295
20
-96.63
11
171.295
21
-97.83
0
LINE
8
Black
10
110.46
20
-97.335
11
109.4
21
-97.335
0
LINE
8
Black
10
109.4
20
-97.335
11
109.4
21
-96.685
0
LINE
8
Black
10
109.4
20
-96.685
11
110.46
21
-96.685
0
LINE
8
Black
10
110.46
20
-96.685
11
110.46
21
-97.335
0
LINE
8
Black
10
112.66
20
-97.335
11
111.6
21
-97.335
0
LINE
8
Black
10
111.6
20
-97.335
11
111.6
21
-96.685
0
LINE
8
Black
10
111.6
20
-96.685
11
112.66
21
-96.685
0
LINE
8
Black
10
112.66
20
-96.685
11
112.66
21
-97.335
0
LINE
8
Black
10
166.215
20
-97.295
11
164.265
21
-97.295
0
LINE
8
Black
10
164.265
20
-97.295
11
164.265
21
-96.695
0
LINE
8
Black
10
164.265
20
-96.695
11
166.215
21
-96.695
0
LINE
8
Black
10
166.215
20
-96.695
11
166.215
21
-97.295
0
LINE
8
Black
10
156.815
20
-97.295
11
154.865
21
-97.295
0
LINE
8
Black
10
154.865
20
-97.295
11
154.865
21
-96.695
0
LINE
8
Black
10
154.865
20
-96.695
11
156.815
21
-96.695
0
LINE
8
Black
10
156.815
20
-96.695
11
156.815
21
-97.295
0
LINE
8
Black
10
184.685
20
-97.165
11
183.485
21
-97.165
0
LINE
8
Black
10
183.485
20
-97.165
11
183.485
21
-96.265
0
LINE
8
Black
10
183.485
20
-96.265
11
184.685
21
-96.265
0
LINE
8
Black
10
184.685
20
-96.265
11
184.685
21
-97.165
0
LINE
8
Black
10
182.485
20
-97.165
11
181.285
21
-97.165
0
LINE
8
Black
10
181.285
20
-97.165
11
181.285
21
-96.265
0
LINE
8
Black
10
181.285
20
-96.265
11
182.485
21
-96.265
0
LINE
8
Black
10
182.485
20
-96.265
11
182.485
21
-97.165
0
LINE
8
Black
10
108.15
20
-97.005
11
106.95
21
-97.005
0
LINE
8
Black
10
106.95
20
-97.005
11
106.95
21
-96.255
0
LINE
8
Black
10
106.95
20
-96.255
11
108.15
21
-96.255
0
LINE
8
Black
10
108.15
20
-96.255
11
108.15
21
-97.005
0
LINE
8
Black
10
106.25
20
-97.005
11
105.05
21
-97.005
0
LINE
8
Black
10
105.05
20
-97.005
11
105.05
21
-96.255
0
LINE
8
Black
10
105.05
20
-96.255
11
106.25
21
-96.255
0
LINE
8
Black
10
106.25
20
-96.255
11
106.25
21
-97.005
0
LINE
8
Black
10
110.46
20
-96.385
11
109.4
21
-96.385
0
LINE
8
Black
10
109.4
20
-96.385
11
109.4
21
-95.735
0
LINE
8
Black
10
109.4
20
-95.735
11
110.46
21
-95.735
0
LINE
8
Black
10
110.46
20
-95.735
11
110.46
21
-96.385
0
LINE
8
Black
10
169.245
20
-95.95
11
168.495
21
-95.95
0
LINE
8
Black
10
168.495
20
-95.95
11
168.495
21
-94.75
0
LINE
8
Black
10
168.495
20
-94.75
11
169.245
21
-94.75
0
LINE
8
Black
10
169.245
20
-94.75
11
169.245
21
-95.95
0
LINE
8
Black
10
114.585
20
-95.95
11
113.835
21
-95.95
0
LINE
8
Black
10
113.835
20
-95.95
11
113.835
21
-94.75
0
LINE
8
Black
10
113.835
20
-94.75
11
114.585
21
-94.75
0
LINE
8
Black
10
114.585
20
-94.75
11
114.585
21
-95.95
0
LINE
8
Black
10
175.48
20
-95.93
11
174.58
21
-95.93
0
LINE
8
Black
10
174.58
20
-95.93
11
174.58
21
-94.73
0
LINE
8
Black
10
174.58
20
-94.73
11
175.48
21
-94.73
0
LINE
8
Black
10
175.48
20
-94.73
11
175.48
21
-95.93
0
LINE
8
Black
10
177.73
20
-95.93
11
176.83
21
-95.93
0
LINE
8
Black
10
176.83
20
-95.93
11
176.83
21
-94.73
0
LINE
8
Black
10
176.83
20
-94.73
11
177.73
21
-94.73
0
LINE
8
Black
10
177.73
20
-94.73
11
177.73
21
-95.93
0
LINE
8
Black
10
171.295
20
-95.93
11
170.545
21
-95.93
0
LINE
8
Black
10
170.545
20
-95.93
11
170.545
21
-94.73
0
LINE
8
Black
10
170.545
20
-94.73
11
171.295
21
-94.73
0
LINE
8
Black
10
171.295
20
-94.73
11
171.295
21
-95.93
0
LINE
8
Black
10
173.35
20
-95.93
11
172.45
21
-95.93
0
LINE
8
Black
10
172.45
20
-95.93
11
172.45
21
-94.73
0
LINE
8
Black
10
172.45
20
-94.73
11
173.35
21
-94.73
0
LINE
8
Black
10
173.35
20
-94.73
11
173.35
21
-95.93
0
LINE
8
Black
10
164.85
20
-95.51
11
163.65
21
-95.51
0
LINE
8
Black
10
163.65
20
-95.51
11
163.65
21
-94.61
0
LINE
8
Black
10
163.65
20
-94.61
11
164.85
21
-94.61
0
LINE
8
Black
10
164.85
20
-94.61
11
164.85
21
-95.51
0
LINE
8
Black
10
162.65
20
-95.51
11
161.45
21
-95.51
0
LINE
8
Black
10
161.45
20
-95.51
11
161.45
21
-94.61
0
LINE
8
Black
10
161.45
20
-94.61
11
162.65
21
-94.61
0
LINE
8
Black
10
162.65
20
-94.61
11
162.65
21
-95.51
0
LINE
8
Black
10
112.66
20
-95.435
11
111.6
21
-95.435
0
LINE
8
Black
10
111.6
20
-95.435
11
111.6
21
-94.785
0
LINE
8
Black
10
111.6
20
-94.785
11
112.66
21
-94.785
0
LINE
8
Black
10
112.66
20
-94.785
11
112.66
21
-95.435
0
LINE
8
Black
10
110.46
20
-95.435
11
109.4
21
-95.435
0
LINE
8
Black
10
109.4
20
-95.435
11
109.4
21
-94.785
0
LINE
8
Black
10
109.4
20
-94.785
11
110.46
21
-94.785
0
LINE
8
Black
10
110.46
20
-94.785
11
110.46
21
-95.435
0
LINE
8
Black
10
105.95
20
-95.05
11
104.75
21
-95.05
0
LINE
8
Black
10
104.75
20
-95.05
11
104.75
21
-94.15
0
LINE
8
Black
10
104.75
20
-94.15
11
105.95
21
-94.15
0
LINE
8
Black
10
105.95
20
-94.15
11
105.95
21
-95.05
0
LINE
8
Black
10
108.15
20
-95.05
11
106.95
21
-95.05
0
LINE
8
Black
10
106.95
20
-95.05
11
106.95
21
-94.15
0
LINE
8
Black
10
106.95
20
-94.15
11
108.15
21
-94.15
0
LINE
8
Black
10
108.15
20
-94.15
11
108.15
21
-95.05
0
LINE
8
Black
10
214.47
20
-90.33
11
213.27
21
-90.33
0
LINE
8
Black
10
213.27
20
-90.33
11
213.27
21
-89.43
0
LINE
8
Black
10
213.27
20
-89.43
11
214.47
21
-89.43
0
LINE
8
Black
10
214.47
20
-89.43
11
214.47
21
-90.33
0
LINE
8
Black
10
216.67
20
-90.33
11
215.47
21
-90.33
0
LINE
8
Black
10
215.47
20
-90.33
11
215.47
21
-89.43
0
LINE
8
Black
10
215.47
20
-89.43
11
216.67
21
-89.43
0
LINE
8
Black
10
216.67
20
-89.43
11
216.67
21
-90.33
0
LINE
8
Black
10
192.13
20
-86.9
11
190.93
21
-86.9
0
LINE
8
Black
10
190.93
20
-86.9
11
190.93
21
-86
0
LINE
8
Black
10
190.93
20
-86
11
192.13
21
-86
0
LINE
8
Black
10
192.13
20
-86
11
192.13
21
-86.9
0
LINE
8
Black
10
194.33
20
-86.9
11
193.13
21
-86.9
0
LINE
8
Black
10
193.13
20
-86.9
11
193.13
21
-86
0
LINE
8
Black
10
193.13
20
-86
11
194.33
21
-86
0
LINE
8
Black
10
194.33
20
-86
11
194.33
21
-86.9
  0
ENDSEC
  0
EOF
